<svg width="32" height="32" viewBox="0 0 32 32" fill="none" xmlns="http://www.w3.org/2000/svg">
<path d="M6.20758 31.0105C6.20751 30.8873 6.23172 30.7653 6.27884 30.6515C6.32595 30.5376 6.39505 30.4342 6.48216 30.3471C6.56928 30.26 6.67271 30.1909 6.78655 30.1438C6.90039 30.0966 7.02239 30.0724 7.1456 30.0725L28.7466 30.0725L1.17938 2.50528C1.00357 2.32946 0.904795 2.09101 0.904795 1.84237C0.904795 1.59373 1.00357 1.35527 1.17938 1.17946C1.3552 1.00364 1.59366 0.904866 1.8423 0.904866C2.09094 0.904866 2.32939 1.00364 2.50521 1.17946L30.0724 28.7467L30.0724 7.14567C30.0724 7.02249 30.0967 6.90051 30.1438 6.7867C30.191 6.6729 30.2601 6.56949 30.3472 6.48239C30.4343 6.39528 30.5377 6.32619 30.6515 6.27905C30.7653 6.23191 30.8873 6.20765 31.0105 6.20765C31.1336 6.20765 31.2556 6.23191 31.3694 6.27905C31.4832 6.32619 31.5866 6.39528 31.6737 6.48239C31.7608 6.56949 31.8299 6.6729 31.8771 6.7867C31.9242 6.90051 31.9485 7.02249 31.9485 7.14567L31.9485 31.0105C31.9485 31.1337 31.9243 31.2557 31.8772 31.3696C31.8301 31.4834 31.761 31.5868 31.6739 31.674C31.5868 31.7611 31.4833 31.8302 31.3695 31.8773C31.2557 31.9244 31.1337 31.9486 31.0105 31.9485L7.1456 31.9485C7.02239 31.9486 6.90039 31.9244 6.78655 31.8773C6.67271 31.8302 6.56928 31.7611 6.48216 31.674C6.39505 31.5868 6.32595 31.4834 6.27884 31.3696C6.23172 31.2557 6.20751 31.1337 6.20758 31.0105Z" fill="black"/>
</svg>
