<svg width="68" height="100" viewBox="0 0 68 100" fill="none" xmlns="http://www.w3.org/2000/svg">
<path opacity="0.6" d="M34.3351 0H17.6651C13.2446 0 9.00512 1.75604 5.87936 4.8818C2.7536 8.00756 0.997559 12.247 0.997559 16.6675C0.997559 21.088 2.7536 25.3274 5.87936 28.4532C9.00512 31.579 13.2446 33.335 17.6651 33.335H34.3351V0Z" fill="#8A8A8A"/>
<path opacity="0.4" d="M34.3351 33.33H17.6651C13.2446 33.33 9.00512 35.0861 5.87936 38.2118C2.7536 41.3376 0.997559 45.577 0.997559 49.9975C0.997559 54.418 2.7536 58.6575 5.87936 61.7832C9.00512 64.909 13.2446 66.665 17.6651 66.665H34.3351V33.33Z" fill="#8A8A8A"/>
<path d="M67.6651 50C67.6651 54.4205 65.909 58.66 62.7833 61.7857C59.6575 64.9115 55.4181 66.6675 50.9976 66.6675C46.5771 66.6675 42.3376 64.9115 39.2119 61.7857C36.0861 58.66 34.3301 54.4205 34.3301 50C34.3301 45.5795 36.0861 41.3401 39.2119 38.2143C42.3376 35.0886 46.5771 33.3325 50.9976 33.3325C55.4181 33.3325 59.6575 35.0886 62.7833 38.2143C65.909 41.3401 67.6651 45.5795 67.6651 50Z" fill="#8A8A8A"/>
<path opacity="0.2" d="M17.665 66.67H34.335V83.335C34.334 86.6306 33.3559 89.8519 31.5244 92.5917C29.6928 95.3315 27.09 97.4667 24.0451 98.7274C21.0002 99.9881 17.6498 100.318 14.4176 99.6745C11.1854 99.0313 8.21642 97.4443 5.88608 95.1139C3.55574 92.7836 1.96865 89.8146 1.32547 86.5824C0.682287 83.3502 1.01189 79.9998 2.2726 76.9549C3.53332 73.9099 5.66854 71.3072 8.40832 69.4756C11.1481 67.6441 14.3694 66.671 17.665 66.67Z" fill="#8A8A8A"/>
<path opacity="0.8" d="M34.3301 0H50.9951C55.4156 0 59.655 1.75604 62.7808 4.8818C65.9065 8.00756 67.6626 12.247 67.6626 16.6675C67.6626 21.088 65.9065 25.3274 62.7808 28.4532C59.655 31.579 55.4156 33.335 50.9951 33.335H34.3301V0Z" fill="#8A8A8A"/>
</svg>
