<svg width="18" height="18" viewBox="0 0 18 18" fill="none" xmlns="http://www.w3.org/2000/svg">
<path d="M16.2674 1L10.8507 16C10.8142 16.0798 10.7555 16.1474 10.6816 16.1948C10.6077 16.2422 10.5218 16.2674 10.4341 16.2674C10.3463 16.2674 10.2604 16.2422 10.1865 16.1948C10.1127 16.1474 10.054 16.0798 10.0174 16L7.10073 10.1667L1.26739 7.25C1.18761 7.21344 1.12 7.15474 1.0726 7.08088C1.0252 7.00701 1 6.9211 1 6.83333C1 6.74557 1.0252 6.65965 1.0726 6.58579C1.12 6.51193 1.18761 6.45323 1.26739 6.41667L16.2674 1Z" stroke="#8A56E2" stroke-width="1.66667" stroke-linecap="round" stroke-linejoin="round"/>
</svg>
