<svg width="41" height="35" viewBox="0 0 41 35" fill="none" xmlns="http://www.w3.org/2000/svg">
<path fill-rule="evenodd" clip-rule="evenodd" d="M36.257 1.01515C36.7488 0.808152 37.2871 0.73676 37.8158 0.808403C38.3446 0.880046 38.8445 1.0921 39.2635 1.42251C39.6825 1.75291 40.0053 2.18957 40.1982 2.68706C40.3912 3.18454 40.4473 3.72465 40.3607 4.25117L35.847 31.6299C35.4091 34.2709 32.5115 35.7854 30.0894 34.4699C28.0634 33.3693 25.0543 31.6737 22.3477 29.9045C20.9943 29.0188 16.8488 26.1828 17.3583 24.1648C17.7961 22.4393 24.7617 15.9554 28.7421 12.1004C30.3044 10.5859 29.5919 9.71219 27.747 11.1053C23.1636 14.5642 15.8099 19.8242 13.378 21.3049C11.2326 22.6105 10.1141 22.8334 8.77668 22.6105C6.33674 22.2045 4.07391 21.5756 2.22703 20.8094C-0.26864 19.7745 -0.14724 16.3434 2.22504 15.3444L36.257 1.01515Z" fill="#8A56E2"/>
</svg>
