<svg width="100" height="111" viewBox="0 0 100 111" fill="none" xmlns="http://www.w3.org/2000/svg">
<path d="M96.9444 85.5L52 110.944V91.1111L80 75.7222L96.9444 85.5ZM100 82.7222V29.5L83.5556 38.8889V73.2222L100 82.7222ZM3.05556 85.5L48 110.889V91.1111L20 75.7222L3.05556 85.5ZM0 82.7222V29.5L16.4444 38.8889V73.2222L0 82.7222ZM1.94444 26.0556L48 0V19.1667L18.5 35.3889L18.2222 35.5L1.94444 26.0556ZM98.0555 26.0556L52 0V19.1667L81.5 35.4444L81.7222 35.5556L98.0555 26.0556ZM48 86.6111L20.3889 71.3889V41.3333L48 57.2778V86.6111ZM52 86.6111L79.6111 71.4444V41.3333L52 57.2778V86.6111ZM22.2222 37.8333L50 22.5556L77.7778 37.8333L50 53.8333L22.2222 37.8333Z" fill="#171717"/>
</svg>
