<svg width="101" height="101" viewBox="0 0 101 101" fill="none" xmlns="http://www.w3.org/2000/svg">
<path d="M0.5 0.5V100.5H100.5V0.5H0.5ZM54.9214 78.4893C54.9214 88.2214 49.2071 92.6643 40.8821 92.6643C33.3607 92.6643 29.0071 88.7821 26.775 84.0714L34.4321 79.45C35.9071 82.0607 37.2464 84.2714 40.4821 84.2714C43.5607 84.2714 45.525 83.0643 45.525 78.3571V46.4143H54.9214V78.4893ZM77.15 92.6643C68.4214 92.6643 62.775 88.5143 60.0286 83.0643L67.6857 78.6464C69.6964 81.9286 72.3286 84.3607 76.95 84.3607C80.8321 84.3607 83.3357 82.4179 83.3357 79.7179C83.3357 76.5036 80.7893 75.3643 76.4821 73.4679L74.1393 72.4643C67.3536 69.5857 62.8679 65.9464 62.8679 58.2893C62.8679 51.2357 68.2464 45.8786 76.6179 45.8786C82.6 45.8786 86.8857 47.9536 89.9679 53.4L82.6464 58.0893C81.0393 55.2107 79.2964 54.0714 76.5964 54.0714C73.8536 54.0714 72.1107 55.8143 72.1107 58.0893C72.1107 60.9036 73.8536 62.0393 77.8929 63.8036L80.2357 64.8071C88.2286 68.2214 92.7143 71.7286 92.7143 79.5821C92.7143 88.0214 86.0607 92.6607 77.1536 92.6607L77.15 92.6643Z" fill="#171717"/>
</svg>
