<svg width="40" height="33" viewBox="0 0 40 33" fill="none" xmlns="http://www.w3.org/2000/svg">
<path d="M1.26822e-08 9.31636L19.3709 19.3909C19.5652 19.4919 19.781 19.5447 20 19.5447C20.219 19.5447 20.4348 19.4919 20.6291 19.3909L40 9.31818V26.8182C40.0001 28.3275 39.4226 29.7797 38.3861 30.8768C37.3495 31.9739 35.9324 32.6327 34.4255 32.7182L34.0909 32.7273H5.90909C4.39975 32.7274 2.94758 32.1499 1.85049 31.1133C0.753395 30.0767 0.0945431 28.6596 0.00909113 27.1527L1.26822e-08 26.8182V9.31636ZM5.90909 1.26822e-08H34.0909C35.6003 -9.88122e-05 37.0524 0.577371 38.1495 1.61395C39.2466 2.65053 39.9055 4.06763 39.9909 5.57455L40 5.90909V6.24364L20 16.6436L1.26822e-08 6.24364V5.90909C-9.88122e-05 4.39975 0.577371 2.94758 1.61395 1.85049C2.65053 0.753395 4.06763 0.094543 5.57455 0.00909113L5.90909 1.26822e-08Z" fill="#8A56E2"/>
</svg>
