<svg width="113" height="101" viewBox="0 0 113 101" fill="none" xmlns="http://www.w3.org/2000/svg">
<path d="M56.1404 41.0885C61.4955 41.0885 65.8627 45.4557 65.8627 50.9148C65.8627 56.1139 61.4955 60.5331 56.1404 60.5331C50.7853 60.5331 46.4181 56.1139 46.4181 50.9148C46.4181 45.4557 50.7853 41.0885 56.1404 41.0885ZM32.0685 92.5077C35.344 94.4833 42.5188 91.4678 50.7853 83.6692C48.0818 80.6017 45.4303 77.2743 42.9347 73.7909C38.745 73.3899 34.5798 72.7651 30.4568 71.9192C27.8053 83.0453 28.7931 90.688 32.0685 92.5077ZM35.7599 62.6648L34.2522 60.0132C33.6803 61.521 33.1084 63.0287 32.7444 64.4845C34.1482 64.7964 35.7079 65.0564 37.3196 65.3163L35.7599 62.6648ZM69.7621 58.7135L73.9734 50.9148L69.7621 43.1161C68.2023 40.3606 66.5386 37.917 65.0309 35.4734C62.2234 35.3175 59.2599 35.3175 56.1404 35.3175C53.021 35.3175 50.0575 35.3175 47.2499 35.4734C45.7422 37.917 44.0785 40.3606 42.5188 43.1161L38.3075 50.9148L42.5188 58.7135C44.0785 61.469 45.7422 63.9126 47.2499 66.3561C50.0575 66.5121 53.021 66.5121 56.1404 66.5121C59.2599 66.5121 62.2234 66.5121 65.0309 66.3561C66.5386 63.9126 68.2023 61.469 69.7621 58.7135ZM56.1404 23.7754C55.1526 24.9193 54.1128 26.115 53.0729 27.5188H59.2079C58.1681 26.115 57.1282 24.9193 56.1404 23.7754ZM56.1404 78.0541C57.1282 76.9103 58.1681 75.7145 59.2079 74.3108H53.0729C54.1128 75.7145 55.1526 76.9103 56.1404 78.0541ZM80.1603 9.32192C76.9369 7.34626 69.7621 10.3617 61.4955 18.1604C64.199 21.2279 66.8506 24.5553 69.3462 28.0387C73.6094 28.4546 77.8207 29.0785 81.824 29.9104C84.4756 18.7843 83.4877 11.1416 80.1603 9.32192ZM76.5209 39.1648L78.0287 41.8164C78.6006 40.3086 79.1725 38.8009 79.5364 37.3451C78.1326 37.0332 76.5729 36.7732 74.9612 36.5133L76.5209 39.1648ZM84.0596 2.51109C91.7023 6.87834 92.5342 18.3684 89.3107 31.7821C102.516 35.6814 112.031 42.1283 112.031 50.9148C112.031 59.7013 102.516 66.1482 89.3107 70.0475C92.5342 83.4612 91.7023 94.9512 84.0596 99.3185C76.4689 103.686 66.1227 98.6946 56.1404 89.1802C46.1581 98.6946 35.8119 103.686 28.1692 99.3185C20.5785 94.9512 19.7467 83.4612 22.9701 70.0475C9.76437 66.1482 0.25 59.7013 0.25 50.9148C0.25 42.1283 9.76437 35.6814 22.9701 31.7821C19.7467 18.3684 20.5785 6.87834 28.1692 2.51109C35.8119 -1.85616 46.1581 3.13498 56.1404 12.6494C66.1227 3.13498 76.4689 -1.85616 84.0596 2.51109ZM82.5519 50.9148C84.3196 54.8141 85.8793 58.7135 87.1791 62.6648C98.0972 59.3893 104.232 54.7101 104.232 50.9148C104.232 47.1194 98.0972 42.4402 87.1791 39.1648C85.8793 43.1161 84.3196 47.0155 82.5519 50.9148ZM29.7289 50.9148C27.9612 47.0155 26.4015 43.1161 25.1017 39.1648C14.1836 42.4402 8.04866 47.1194 8.04866 50.9148C8.04866 54.7101 14.1836 59.3893 25.1017 62.6648C26.4015 58.7135 27.9612 54.8141 29.7289 50.9148ZM76.5209 62.6648L74.9612 65.3163C76.5729 65.0564 78.1326 64.7964 79.5364 64.4845C79.1725 63.0287 78.6006 61.521 78.0287 60.0132L76.5209 62.6648ZM61.4955 83.6692C69.7621 91.4678 76.9369 94.4833 80.1603 92.5077C83.4877 90.688 84.4756 83.0453 81.824 71.9192C77.8207 72.7511 73.6094 73.3749 69.3462 73.7909C66.8506 77.2743 64.199 80.6017 61.4955 83.6692ZM35.7599 39.1648L37.3196 36.5133C35.7079 36.7732 34.1482 37.0332 32.7444 37.3451C33.1084 38.8009 33.6803 40.3086 34.2522 41.8164L35.7599 39.1648ZM50.7853 18.1604C42.5188 10.3617 35.344 7.34626 32.0685 9.32192C28.7931 11.1416 27.8053 18.7843 30.4568 29.9104C34.5798 29.0645 38.745 28.4397 42.9347 28.0387C45.4303 24.5553 48.0818 21.2279 50.7853 18.1604Z" fill="#171717"/>
</svg>
